<?xml version="1.0" encoding="utf-8"?>
<!-- Generator: Adobe Adobe Illustrator 24.2.0, SVG Export Plug-In . SVG Version: 6.00 Build 0)  -->
<svg version="1.1" id="Logo" xmlns="http://www.w3.org/2000/svg" xmlns:xlink="http://www.w3.org/1999/xlink" x="0px" y="0px"
	 viewBox="0 0 762.16 427.23" style="enable-background:new 0 0 762.16 427.23;" xml:space="preserve">
<style type="text/css">
	.st0{fill:#FFFFFF;stroke:#000000;stroke-width:6;stroke-miterlimit:10;}
	.st1{fill:#EC1D25;}
	.st2{fill:#FFFFFF;}
	.st3{fill:#FFFFFF;stroke:#FFFFFF;stroke-width:1.5;stroke-miterlimit:10;}
</style>
<g id="Weißes_Oval">
	<ellipse class="st0" cx="381.08" cy="213.62" rx="323.49" ry="181"/>
</g>
<g id="Schwarzes_Oval">
	<ellipse cx="379.08" cy="213.07" rx="290.55" ry="150.24"/>
</g>
<g id="Dach">
	<polygon class="st1" points="343.36,250.91 600.6,248.81 300.45,106.15 	"/>
</g>
<g id="Ebene_5">
	<g>
		<g>
			<path class="st2" d="M292.72,106.86l54.56,190.19h-63.13l-4.52-26.16h-39.5l-5.95,26.16h-59.91l56.51-189.19L292.72,106.86z
				 M269.41,226.22c-2.85-13.24-3.93-18.27-8.26-31.5c-5.5,15.81-4.53,13.17-9.11,31.75L269.41,226.22z"/>
		</g>
	</g>
</g>
<g id="Ebene_6">
	<g>
		<path class="st3" d="M360.25,271.99v3.74h0.18c0.88-3.21,2.39-4.06,6.87-4.06c3.92,0,5.54,0.64,6.6,2.73
			c0.83,1.66,1.12,3.74,1.12,8.39v13.95h-2.15v-12.29c0-4.44-0.15-5.93-0.77-7.21c-0.71-1.55-2.06-2.14-5.04-2.14
			c-3.36,0-5.07,0.8-6.01,2.89c-0.68,1.44-0.8,2.62-0.8,7.32v11.44h-2.15v-24.74H360.25z"/>
		<path class="st3" d="M394.95,296.73h-2.12v-3.15h-0.12c-1.03,2.88-2.18,3.47-6.57,3.47c-3.66,0-5.25-0.43-6.46-1.66
			c-1.71-1.82-2.42-4.97-2.42-10.95c0-5.88,0.71-9.25,2.39-11.17c1.12-1.23,2.8-1.66,7.02-1.66c3.77,0,5.04,0.7,5.98,3.31h0.15
			v-13.84h2.15V296.73z M381.01,276.37c-1.03,1.28-1.44,3.58-1.44,8.07c0,7.69,1.03,9.19,6.22,9.19c3.33,0,4.83-0.37,5.66-1.39
			c1.03-1.23,1.44-3.47,1.44-7.64c0-8.12-0.94-9.57-6.4-9.57C383.25,275.04,381.86,275.41,381.01,276.37z"/>
		<path class="st3" d="M399.85,271.99v3.31H400c0.35-1.12,0.83-1.92,1.53-2.62c0.83-0.75,1.98-1.02,4.66-1.02
			c2.68,0,3.77,0.43,4.69,1.87s1.39,3.79,1.39,7v2.57h-2.21v-1.76c0-5.13-0.74-6.25-4.1-6.25c-5.19,0-6.1,1.5-6.1,10.21v11.44h-2.15
			v-24.74H399.85z"/>
		<path class="st3" d="M431.39,289.09c-0.09,5.93-2.01,7.96-7.55,7.96c-4.57,0-6.69-0.59-7.9-2.14c-1.39-1.76-2.06-5.18-2.06-10.47
			c0-5.88,0.74-9.35,2.42-11.12c1.15-1.23,2.71-1.66,6.13-1.66c4.69,0,6.34,0.69,7.6,3.26c1.03,2.19,1.33,4.43,1.39,10.31h-15.21
			c0.06,3.21,0.35,5.13,1,6.36c0.83,1.55,2.3,2.03,6.4,2.03c3.1,0,4.3-0.43,5.01-1.87c0.35-0.64,0.41-1.07,0.5-2.67H431.39z
			 M429.04,281.88c-0.03-5.45-1.36-6.79-6.66-6.79c-4.72,0-5.87,1.28-6.1,6.79H429.04z M426.81,264.86l-5.64,4.04l-1-2.49l4.87-4.37
			L426.81,264.86z"/>
		<path class="st3" d="M444.19,261.09v15.07h18.1v-15.07h2.62v35.64h-2.62v-16.41h-18.1v16.41h-2.62v-35.64H444.19z"/>
		<path class="st3" d="M485.05,289.09c-0.09,5.93-2.01,7.96-7.55,7.96c-4.57,0-6.69-0.59-7.9-2.14c-1.39-1.76-2.06-5.18-2.06-10.47
			c0-5.88,0.74-9.35,2.42-11.12c1.15-1.23,2.71-1.66,6.13-1.66c4.69,0,6.34,0.69,7.6,3.26c1.03,2.19,1.33,4.43,1.39,10.31h-15.21
			c0.06,3.21,0.35,5.13,1,6.36c0.83,1.55,2.3,2.03,6.4,2.03c3.1,0,4.3-0.43,5.01-1.87c0.35-0.64,0.41-1.07,0.5-2.67H485.05z
			 M482.69,281.88c-0.03-5.45-1.36-6.79-6.66-6.79c-4.72,0-5.87,1.28-6.1,6.79H482.69z"/>
		<path class="st3" d="M489.45,271.99v3.31h0.15c0.35-1.12,0.82-1.92,1.53-2.62c0.83-0.75,1.97-1.02,4.66-1.02s3.77,0.43,4.69,1.87
			c0.91,1.44,1.39,3.79,1.39,7v2.57h-2.21v-1.76c0-5.13-0.74-6.25-4.1-6.25c-5.19,0-6.1,1.5-6.1,10.21v11.44h-2.15v-24.74H489.45z"
			/>
		<path class="st3" d="M505.78,271.99l0.03,3.26c1.24-2.94,2.27-3.58,5.6-3.58c4.45,0,5.98,0.96,7.07,4.33
			c0.88-3.26,2.45-4.33,6.37-4.33c3.71,0,5.28,0.75,6.43,2.99c0.88,1.82,1.06,3.26,1.06,9.03v13.04h-2.15v-13.89
			c0-6.52-0.85-7.75-5.36-7.75c-2.74,0-4.04,0.59-4.77,2.19c-0.77,1.55-0.97,3.69-0.97,9.73v9.73h-2.15v-13.89
			c0-3.58-0.18-4.92-0.74-5.93c-0.77-1.28-2.09-1.82-4.66-1.82c-2.74,0-4.1,0.64-4.89,2.24c-0.71,1.44-0.85,3.15-0.85,9.67v9.73
			h-2.15v-24.74H505.78z"/>
		<path class="st3" d="M535,279.42v-1.07c0-5.18,1.74-6.68,7.66-6.68c4.63,0,6.22,0.59,7.37,2.78c0.94,1.71,1.15,3.37,1.15,9.25
			v13.04h-2.15l0.03-2.89h-0.09c-1.03,2.67-2.03,3.21-6.19,3.21c-4.78,0-6.13-0.32-7.1-1.6c-0.94-1.28-1.27-2.78-1.27-5.88
			c0-3.85,0.5-5.72,1.86-6.73c0.83-0.64,2.09-0.85,5.1-0.85c5.6,0,6.54,0.32,7.49,2.67h0.18v-2.67c0-2.57-0.15-3.63-0.65-4.7
			c-0.77-1.71-2-2.19-5.57-2.19c-3.95,0-4.98,0.43-5.36,2.24c-0.09,0.32-0.15,1.02-0.18,2.08H535z M537.56,286.26
			c-0.59,0.64-0.85,1.71-0.85,3.37c0,1.76,0.29,2.67,1,3.31c0.62,0.53,2.06,0.69,5.51,0.69c4.57,0,5.66-0.8,5.66-4.11
			c0-3.21-1.3-4.06-6.1-4.06C539.24,285.46,538.15,285.62,537.56,286.26z"/>
		<path class="st3" d="M555.87,271.99v3.74h0.18c0.88-3.21,2.39-4.06,6.87-4.06c3.92,0,5.54,0.64,6.6,2.73
			c0.82,1.66,1.12,3.74,1.12,8.39v13.95h-2.15v-12.29c0-4.44-0.15-5.93-0.77-7.21c-0.71-1.55-2.06-2.14-5.04-2.14
			c-3.36,0-5.07,0.8-6.01,2.89c-0.68,1.44-0.79,2.62-0.79,7.32v11.44h-2.15v-24.74H555.87z"/>
		<path class="st3" d="M575.33,271.99v3.74h0.18c0.88-3.21,2.39-4.06,6.87-4.06c3.92,0,5.54,0.64,6.6,2.73
			c0.82,1.66,1.12,3.74,1.12,8.39v13.95h-2.15v-12.29c0-4.44-0.15-5.93-0.77-7.21c-0.71-1.55-2.06-2.14-5.04-2.14
			c-3.36,0-5.07,0.8-6.01,2.89c-0.68,1.44-0.79,2.62-0.79,7.32v11.44h-2.15v-24.74H575.33z"/>
	</g>
</g>
</svg>
