<svg xmlns="http://www.w3.org/2000/svg" viewBox="0 0 800 600" role="img" aria-label="Platzhalter: frisch eingedecktes Steildach" preserveAspectRatio="xMidYMid slice">
  <defs>
    <linearGradient id="sky" x1="0" y1="0" x2="0" y2="1">
      <stop offset="0" stop-color="#3a4149"/><stop offset="1" stop-color="#4a525b"/>
    </linearGradient>
    <linearGradient id="rA" x1="0" y1="0" x2="1" y2="1"><stop offset="0" stop-color="#262b31"/><stop offset="1" stop-color="#1a1d21"/></linearGradient>
    <linearGradient id="rB" x1="0" y1="0" x2="1" y2="1"><stop offset="0" stop-color="#333a42"/><stop offset="1" stop-color="#23282f"/></linearGradient>
    <pattern id="slate" width="40" height="22" patternUnits="userSpaceOnUse">
      <path d="M0 22 L20 5 L40 22" fill="none" stroke="#000" stroke-opacity="0.18" stroke-width="1.3"/>
      <path d="M-20 22 L0 5 L20 22" fill="none" stroke="#000" stroke-opacity="0.18" stroke-width="1.3"/>
      <path d="M20 22 L40 5 L60 22" fill="none" stroke="#000" stroke-opacity="0.18" stroke-width="1.3"/>
    </pattern>
  </defs>
  <rect width="800" height="600" fill="url(#sky)"/>
  <circle cx="640" cy="132" r="96" fill="#d9694b" fill-opacity="0.22"/>
  <polygon points="0,372 336,192 336,600 0,600" fill="url(#rA)"/>
  <polygon points="0,372 336,192 336,600 0,600" fill="url(#slate)" opacity="0.9"/>
  <polygon points="336,192 800,372 800,600 336,600" fill="url(#rB)"/>
  <polygon points="336,192 800,372 800,600 336,600" fill="url(#slate)" opacity="0.7"/>
  <polyline points="0,372 336,192 800,372" fill="none" stroke="#0f1114" stroke-width="8" stroke-linejoin="round"/>
  <g font-family="Arial, sans-serif" text-anchor="middle">
    <rect x="305" y="548" width="190" height="30" rx="4" fill="#1a1d21" fill-opacity="0.8"/>
    <text x="400" y="568" fill="#aeb4bb" font-size="14" letter-spacing="1.5">PROJEKTFOTO FOLGT</text>
  </g>
</svg>